<?xml version="1.0" encoding="utf-8"?>
<!-- Generator: Adobe Illustrator 15.1.0, SVG Export Plug-In . SVG Version: 6.00 Build 0)  -->
<!DOCTYPE svg PUBLIC "-//W3C//DTD SVG 1.1//EN" "http://www.w3.org/Graphics/SVG/1.1/DTD/svg11.dtd">
<svg version="1.1" id="レイヤー_1" xmlns="http://www.w3.org/2000/svg" xmlns:xlink="http://www.w3.org/1999/xlink" x="0px"
	 y="0px" width="100px" height="100px" viewBox="-49.554 1140.776 100 100" enable-background="new -49.554 1140.776 100 100"
	 xml:space="preserve">
<symbol  id="astrolab_logomark_1" viewBox="-54.648 -55.495 109.295 110.991">
	<polygon fill="none" points="-33.495,26.207 -11.423,24.156 -27.555,4.239 	"/>
	<path fill="#FFFFFF" d="M-27.555,3.739c-0.035,0-0.07,0.004-0.104,0.01c-0.184,0.04-0.33,0.178-0.38,0.36l-5.94,21.968
		c-0.042,0.158-0.004,0.326,0.101,0.451c0.105,0.126,0.263,0.188,0.428,0.177l22.071-2.05c0.185-0.017,0.345-0.134,0.416-0.304
		s0.043-0.366-0.072-0.509L-27.167,3.925C-27.263,3.806-27.406,3.739-27.555,3.739z M-32.824,25.643l5.496-20.328l14.929,18.431
		L-32.824,25.643z"/>
	<polygon fill="none" points="-33.495,26.207 -11.423,24.156 5.605,40.397 -6.535,52.38 -30.5,43.551 	"/>
	<path fill="#FFFFFF" d="M-11.423,23.656c-0.015,0-0.03,0-0.046,0.003l-22.073,2.05c-0.138,0.014-0.265,0.084-0.351,0.193
		c-0.084,0.111-0.119,0.253-0.096,0.39l2.996,17.345c0.031,0.177,0.152,0.322,0.32,0.385l23.962,8.827
		c0.182,0.067,0.388,0.024,0.525-0.113L5.956,40.753c0.097-0.095,0.149-0.225,0.149-0.359c-0.002-0.136-0.058-0.265-0.155-0.358
		l-17.028-16.241C-11.172,23.705-11.295,23.656-11.423,23.656z M-32.91,26.655l21.307-1.979l16.49,15.727L-6.66,51.801
		l-23.396-8.619L-32.91,26.655z"/>
	<polygon fill="none" points="-11.423,24.156 5.605,40.397 13.804,19.743 	"/>
	<path fill="#FFFFFF" d="M13.804,19.243c-0.028,0-0.058,0.002-0.086,0.006l-25.227,4.416c-0.187,0.031-0.338,0.166-0.393,0.347
		c-0.055,0.182-0.003,0.377,0.134,0.507L5.26,40.759c0.12,0.114,0.288,0.163,0.452,0.127c0.162-0.036,0.296-0.149,0.358-0.305
		l8.15-20.535c0.064-0.084,0.104-0.188,0.104-0.303c0-0.28-0.223-0.5-0.51-0.5C13.811,19.243,13.807,19.243,13.804,19.243z
		 M-10.361,24.479L13.01,20.39L5.414,39.523L-10.361,24.479z"/>
	<polygon fill="none" points="-6.535,52.38 -30.5,43.551 -18.988,51.749 	"/>
	<path fill="#FFFFFF" d="M-30.5,43.052c-0.18,0-0.353,0.099-0.442,0.267c-0.117,0.222-0.052,0.495,0.152,0.641l11.51,8.197
		c0.078,0.056,0.17,0.088,0.266,0.093l12.453,0.631c0.246,0.016,0.465-0.157,0.515-0.4c0.05-0.241-0.085-0.483-0.317-0.57
		l-23.963-8.828C-30.383,43.062-30.441,43.052-30.5,43.052z M-18.818,51.258l-8.346-5.944l17.377,6.4L-18.818,51.258z"/>
	<polyline fill="none" points="-30.5,43.551 -47.527,24.474 -33.495,26.207 -30.5,43.551 	"/>
	<path fill="#FFFFFF" d="M-47.527,23.974c-0.184,0-0.355,0.103-0.442,0.269c-0.097,0.185-0.069,0.409,0.069,0.564l17.028,19.078
		c0.149,0.166,0.391,0.214,0.591,0.117c0.201-0.098,0.312-0.315,0.275-0.535l-2.997-17.346c-0.038-0.217-0.212-0.383-0.431-0.41
		l-14.031-1.733C-47.486,23.976-47.507,23.974-47.527,23.974z M-31.289,41.915l-14.979-16.782l12.343,1.523L-31.289,41.915z"/>
	<polyline fill="none" points="-47.527,24.474 -33.495,26.207 -46.267,4.292 -47.527,24.474 	"/>
	<path fill="#FFFFFF" d="M-46.267,3.792c-0.038,0-0.077,0.005-0.115,0.014c-0.214,0.05-0.371,0.235-0.384,0.455l-1.26,20.182
		c-0.018,0.263,0.175,0.495,0.438,0.527l14.031,1.733c0.195,0.024,0.375-0.062,0.479-0.221c0.105-0.159,0.111-0.363,0.016-0.527
		L-45.834,4.04C-45.926,3.885-46.092,3.792-46.267,3.792z M-46.999,24.035l1.128-18.07l11.435,19.621L-46.999,24.035z"/>
	<polygon fill="none" points="-46.267,4.292 -27.555,4.239 -33.495,26.207 	"/>
	<path fill="#FFFFFF" d="M-27.555,3.739c-0.001,0-0.002,0-0.002,0l-18.711,0.053c-0.18,0-0.344,0.095-0.434,0.252
		c-0.088,0.154-0.088,0.345,0.002,0.5l12.771,21.915c0.102,0.174,0.291,0.269,0.498,0.242c0.2-0.024,0.365-0.169,0.418-0.364
		l5.939-21.967c0.041-0.15,0.009-0.312-0.086-0.436C-27.254,3.812-27.4,3.739-27.555,3.739z M-45.398,4.789l17.189-0.049
		l-5.457,20.182L-45.398,4.789z"/>
	<polygon fill="none" points="-46.267,4.292 -27.555,4.239 -35.859,-17.94 	"/>
	<path fill="#FFFFFF" d="M-35.859-18.439c-0.193,0-0.37,0.111-0.453,0.288L-46.719,4.08c-0.074,0.154-0.062,0.336,0.031,0.481
		c0.092,0.144,0.25,0.23,0.421,0.23c0.001,0,0.001,0,0.001,0l18.712-0.053c0.163,0,0.317-0.081,0.409-0.216
		c0.094-0.135,0.115-0.306,0.058-0.46l-8.304-22.179c-0.071-0.188-0.248-0.316-0.449-0.324
		C-35.846-18.439-35.854-18.439-35.859-18.439z M-45.479,3.789l9.569-20.439l7.635,20.391L-45.479,3.789z"/>
	<polygon fill="none" points="-35.859,-17.94 -27.555,4.239 -2.961,1.086 3.557,-23.404 -16.626,-35.388 	"/>
	<path fill="#FFFFFF" d="M-16.626-35.888c-0.12,0-0.241,0.044-0.335,0.13L-36.195-18.31c-0.152,0.138-0.204,0.354-0.133,0.546
		l8.305,22.177c0.081,0.219,0.307,0.35,0.531,0.322l24.594-3.154c0.202-0.026,0.368-0.171,0.42-0.367L4.04-23.275
		c0.058-0.217-0.036-0.445-0.228-0.56L-16.37-35.817C-16.449-35.865-16.537-35.888-16.626-35.888z M-35.271-17.797l18.709-16.973
		L2.977-23.168L-3.358,0.633l-23.868,3.06L-35.271-17.797z"/>
	<polygon fill="none" points="-2.961,1.086 -11.423,24.156 -27.555,4.239 	"/>
	<path fill="#FFFFFF" d="M-2.961,0.586c-0.021,0-0.043,0-0.064,0.004l-24.594,3.153c-0.18,0.023-0.332,0.142-0.4,0.31
		c-0.067,0.169-0.038,0.36,0.076,0.502l16.132,19.916c0.113,0.142,0.293,0.208,0.471,0.18c0.177-0.029,0.325-0.153,0.388-0.32
		l8.461-23.072c0.061-0.163,0.031-0.347-0.078-0.483C-2.667,0.654-2.811,0.586-2.961,0.586z M-26.603,4.621l22.888-2.935
		l-7.874,21.47L-26.603,4.621z"/>
	<polygon fill="none" points="-2.961,1.086 13.804,19.743 -11.423,24.156 	"/>
	<path fill="#FFFFFF" d="M-2.961,0.586c-0.031,0-0.063,0.003-0.096,0.009c-0.172,0.033-0.314,0.154-0.374,0.318l-8.462,23.072
		c-0.061,0.167-0.028,0.355,0.086,0.492c0.115,0.138,0.297,0.204,0.47,0.172l25.227-4.414c0.179-0.03,0.327-0.158,0.387-0.329
		s0.021-0.362-0.101-0.497L-2.59,0.752C-2.686,0.646-2.82,0.586-2.961,0.586z M-10.654,23.515l7.877-21.478l15.605,17.369
		L-10.654,23.515z"/>
	<polygon fill="none" points="-2.961,1.086 13.804,19.743 21.523,-5.025 	"/>
	<path fill="#FFFFFF" d="M21.523-5.525c-0.041,0-0.082,0.005-0.121,0.016l-24.485,6.11c-0.17,0.042-0.306,0.171-0.356,0.339
		s-0.012,0.35,0.104,0.48l16.767,18.657c0.121,0.133,0.307,0.19,0.479,0.154c0.176-0.038,0.317-0.168,0.371-0.339l7.68-24.644
		c0.052-0.079,0.081-0.173,0.081-0.274c0-0.279-0.239-0.51-0.509-0.5C21.529-5.525,21.526-5.525,21.523-5.525z M-2.034,1.37
		l22.815-5.694l-7.193,23.078L-2.034,1.37z"/>
	<path fill="none" d="M-2.961,1.086"/>
	<polygon fill="none" points="-2.961,1.086 3.557,-23.404 21.523,-5.025 	"/>
	<path fill="#FFFFFF" d="M3.557-23.905c-0.043,0-0.085,0.007-0.127,0.018c-0.174,0.046-0.311,0.181-0.356,0.354l-6.519,24.49
		C-3.49,1.129-3.441,1.311-3.318,1.436c0.125,0.128,0.307,0.179,0.479,0.136l24.484-6.11c0.174-0.044,0.311-0.178,0.359-0.35
		s0.002-0.357-0.123-0.486L3.914-23.755C3.818-23.853,3.689-23.905,3.557-23.905z M-2.26,0.396l6.073-22.821L20.557-5.299
		L-2.26,0.396z"/>
	<path fill="none" d="M-11.423,24.156"/>
	<path fill="none" d="M-27.555,4.239"/>
	<path fill="none" d="M-33.495,26.207"/>
	<polygon fill="none" points="-47.527,24.474 -46.267,4.292 -49.891,-17.308 -54.148,-10.844 -52.888,15.013 	"/>
	<path fill="#FFFFFF" d="M-49.891-17.808c-0.166,0-0.324,0.083-0.418,0.226l-4.257,6.464c-0.059,0.089-0.087,0.193-0.082,0.3
		l1.261,25.855c0.004,0.078,0.025,0.154,0.064,0.223l5.36,9.459c0.108,0.193,0.331,0.293,0.548,0.242
		c0.215-0.05,0.373-0.235,0.387-0.456l1.26-20.182c0.002-0.038,0-0.076-0.006-0.114l-3.625-21.6
		c-0.033-0.203-0.188-0.364-0.389-0.406C-49.822-17.805-49.857-17.808-49.891-17.808z M-53.641-10.705l3.467-5.265l3.404,20.288
		l-1.151,18.444l-4.474-7.894L-53.641-10.705z"/>
	<polygon fill="none" points="-49.891,-17.308 -35.859,-17.94 -46.267,4.292 	"/>
	<path fill="#FFFFFF" d="M-35.859-18.439c-0.008,0-0.016,0-0.022,0l-14.032,0.633c-0.143,0.006-0.275,0.073-0.365,0.185
		c-0.091,0.11-0.129,0.256-0.105,0.397l3.625,21.598c0.036,0.217,0.209,0.385,0.425,0.415c0.219,0.027,0.427-0.085,0.52-0.284
		l10.408-22.232c0.074-0.157,0.061-0.345-0.037-0.488C-35.537-18.356-35.693-18.439-35.859-18.439z M-49.305-16.835l12.643-0.567
		l-9.377,20.028L-49.305-16.835z"/>
	<polygon fill="none" points="-49.891,-17.308 -35.859,-17.94 -35.019,-37.908 	"/>
	<path fill="#FFFFFF" d="M-35.019-38.408c-0.157,0-0.31,0.073-0.405,0.206L-50.297-17.6c-0.111,0.154-0.125,0.361-0.034,0.529
		c0.091,0.169,0.273,0.277,0.462,0.262l14.032-0.631c0.259-0.012,0.466-0.22,0.478-0.479l0.834-19.829
		c0.018-0.051,0.027-0.104,0.027-0.16c-0.001-0.28-0.212-0.488-0.509-0.5C-35.012-38.408-35.015-38.408-35.019-38.408z
		 M-48.881-17.854l13.293-18.412l-0.752,17.847L-48.881-17.854z"/>
	<polygon fill="none" points="-35.019,-37.908 -49.891,-17.308 -44.269,-33.809 	"/>
	<path fill="#FFFFFF" d="M-35.019-38.408c-0.068,0-0.138,0.014-0.202,0.043l-9.25,4.1c-0.128,0.057-0.227,0.163-0.271,0.295
		l-5.622,16.502c-0.08,0.234,0.024,0.492,0.243,0.605c0.221,0.112,0.49,0.049,0.635-0.152l14.873-20.601
		c0.133-0.183,0.125-0.433-0.018-0.607C-34.728-38.344-34.871-38.408-35.019-38.408z M-43.865-33.44l7.359-3.263L-48.34-20.311
		L-43.865-33.44z"/>
	<polyline fill="none" points="-49.891,-17.308 -44.269,-33.809 -54.148,-10.844 -49.891,-17.308 	"/>
	<path fill="#FFFFFF" d="M-44.269-34.309c-0.194,0-0.378,0.113-0.46,0.302l-9.879,22.966c-0.102,0.237-0.006,0.516,0.223,0.638
		s0.511,0.051,0.654-0.166l4.257-6.464c0.023-0.036,0.042-0.073,0.055-0.113l5.581-16.379c0.057-0.08,0.089-0.178,0.089-0.283
		c0-0.278-0.224-0.5-0.5-0.5C-44.256-34.309-44.262-34.309-44.269-34.309z M-51.45-15.85l2.567-5.969l-1.461,4.289L-51.45-15.85z"/>
	<path fill="none" d="M-35.859-17.94"/>
	<polygon fill="none" points="-35.859,-17.94 -35.019,-37.908 -16.626,-35.388 	"/>
	<path fill="#FFFFFF" d="M-35.019-38.408c-0.116,0-0.23,0.04-0.321,0.115c-0.107,0.091-0.172,0.223-0.178,0.363l-0.842,19.969
		c-0.008,0.201,0.105,0.389,0.288,0.475c0.182,0.085,0.398,0.053,0.548-0.083l19.234-17.448c0.144-0.131,0.199-0.332,0.141-0.518
		c-0.057-0.186-0.217-0.321-0.409-0.348l-18.394-2.521C-34.973-38.407-34.996-38.408-35.019-38.408z M-35.31-19.113l0.767-18.226
		l16.787,2.301L-35.31-19.113z"/>
	<polygon fill="none" points="-16.626,-35.388 -35.019,-37.908 -12.148,-51.508 	"/>
	<path fill="#FFFFFF" d="M-12.148-52.008c-0.088,0-0.177,0.022-0.256,0.07l-22.869,13.599c-0.184,0.108-0.277,0.321-0.235,0.53
		c0.042,0.207,0.212,0.366,0.423,0.395l18.393,2.521c0.25,0.031,0.482-0.121,0.55-0.361l4.477-16.12
		c0.055-0.196-0.017-0.407-0.179-0.531C-11.935-51.973-12.042-52.008-12.148-52.008z M-33.533-38.211l20.569-12.23l-4.026,14.499
		L-33.533-38.211z"/>
	<polygon fill="none" points="-12.148,-51.508 -16.626,-35.388 6.787,-43.321 	"/>
	<path fill="#FFFFFF" d="M-12.148-52.008c-0.074,0-0.148,0.016-0.217,0.049c-0.13,0.062-0.227,0.178-0.266,0.317l-4.477,16.12
		c-0.049,0.178,0.004,0.368,0.139,0.497c0.134,0.128,0.328,0.169,0.504,0.11l23.412-7.934c0.196-0.066,0.331-0.246,0.34-0.453
		c0.008-0.207-0.111-0.397-0.302-0.479l-18.937-8.188C-12.014-51.994-12.083-52.008-12.148-52.008z M-15.891-36.164l4.07-14.657
		l17.217,7.442L-15.891-36.164z"/>
	<path fill="none" d="M-16.626-35.388"/>
	<polygon fill="none" points="-16.626,-35.388 6.787,-43.321 3.557,-23.404 	"/>
	<path fill="#FFFFFF" d="M6.787-43.821c-0.054,0-0.107,0.009-0.161,0.026l-23.412,7.934c-0.185,0.062-0.316,0.226-0.338,0.422
		c-0.019,0.193,0.075,0.382,0.243,0.481L3.301-22.975c0.143,0.086,0.318,0.094,0.467,0.023c0.149-0.07,0.256-0.211,0.283-0.373
		l3.23-19.917c0.027-0.173-0.037-0.349-0.171-0.462C7.019-43.78,6.904-43.821,6.787-43.821z M-15.436-35.263L6.16-42.582
		L3.181-24.209L-15.436-35.263z"/>
	<polygon fill="none" points="6.787,-43.321 3.557,-23.404 27.003,-27.945 	"/>
	<path fill="#FFFFFF" d="M6.787-43.821c-0.062,0-0.125,0.012-0.186,0.035c-0.163,0.065-0.279,0.212-0.31,0.385L3.062-23.485
		c-0.025,0.162,0.029,0.326,0.146,0.44c0.118,0.113,0.284,0.162,0.444,0.131l23.445-4.541c0.192-0.037,0.348-0.185,0.393-0.377
		c0.045-0.191-0.027-0.393-0.185-0.512L7.09-43.72C7.001-43.787,6.895-43.821,6.787-43.821z M4.165-24.031l2.982-18.388
		l18.663,14.195L4.165-24.031z"/>
	<path fill="none" d="M3.557-23.404"/>
	<polygon fill="none" points="3.557,-23.404 27.003,-27.945 21.523,-5.025 	"/>
	<path fill="#FFFFFF" d="M27.003-28.445c-0.032,0-0.063,0.003-0.095,0.009L3.461-23.895c-0.18,0.033-0.326,0.166-0.381,0.342
		c-0.056,0.174-0.01,0.366,0.119,0.498L21.165-4.676c0.127,0.131,0.316,0.182,0.491,0.133s0.311-0.189,0.354-0.365l5.479-22.922
		c0.04-0.164-0.008-0.338-0.125-0.461C27.27-28.391,27.138-28.445,27.003-28.445z M4.562-23.091l21.773-4.216L21.247-6.021
		L4.562-23.091z"/>
	<polygon fill="none" points="27.003,-27.945 21.523,-5.025 42.734,-7.375 	"/>
	<path fill="#FFFFFF" d="M27.003-28.445c-0.034,0-0.069,0.004-0.104,0.011c-0.188,0.04-0.337,0.186-0.382,0.373L21.037-5.141
		c-0.038,0.158,0.003,0.324,0.111,0.447c0.107,0.121,0.262,0.182,0.43,0.166l21.211-2.35c0.18-0.021,0.333-0.135,0.404-0.301
		s0.047-0.357-0.062-0.5L27.4-28.249C27.305-28.374,27.156-28.445,27.003-28.445z M22.175-5.6l5.069-21.207L41.799-7.773L22.175-5.6
		z"/>
	<polygon fill="none" points="42.734,-7.375 47.318,15.532 29.882,32.355 13.804,19.743 21.523,-5.025 	"/>
	<path fill="#FFFFFF" d="M42.734-7.875c-0.019,0-0.037,0.002-0.056,0.004l-21.211,2.35c-0.197,0.021-0.363,0.158-0.423,0.348
		l-7.719,24.768c-0.062,0.199,0.005,0.414,0.169,0.543l16.078,12.614c0.194,0.152,0.477,0.139,0.655-0.034l17.437-16.824
		c0.122-0.119,0.177-0.291,0.144-0.458L43.225-7.473C43.177-7.709,42.97-7.875,42.734-7.875z M21.902-4.564l20.431-2.263
		l4.44,22.189L29.848,31.694L14.384,19.562L21.902-4.564z"/>
	<path fill="none" d="M13.804,19.743"/>
	<polygon fill="none" points="13.804,19.743 5.605,40.397 29.882,32.355 	"/>
	<path fill="#FFFFFF" d="M13.804,19.243c-0.044,0-0.087,0.006-0.13,0.018c-0.152,0.041-0.277,0.151-0.335,0.298L5.141,40.213
		c-0.072,0.181-0.033,0.386,0.101,0.527c0.133,0.142,0.336,0.193,0.521,0.132l24.277-8.041c0.175-0.058,0.304-0.207,0.335-0.388
		c0.032-0.183-0.038-0.366-0.184-0.479L14.112,19.35C14.023,19.28,13.914,19.243,13.804,19.243z M6.465,39.586l7.557-19.036
		L28.84,32.176L6.465,39.586z"/>
	<path fill="none" d="M21.523-5.025"/>
	<polygon fill="none" points="42.734,-7.375 27.003,-27.945 43.66,-28.657 	"/>
	<path fill="#FFFFFF" d="M43.66-29.156c-0.008,0-0.014,0-0.021,0l-16.657,0.711c-0.187,0.008-0.353,0.119-0.431,0.288
		c-0.08,0.169-0.059,0.367,0.055,0.516L42.337-7.07c0.128,0.165,0.346,0.235,0.547,0.173c0.199-0.063,0.341-0.245,0.35-0.455
		l0.927-21.283c0.005-0.14-0.047-0.275-0.146-0.374C43.92-29.104,43.792-29.156,43.66-29.156z M27.982-27.486l15.154-0.647
		L42.295-8.772L27.982-27.486z"/>
	<polygon fill="none" points="-12.148,-51.508 6.787,-43.321 11.698,-53.5 	"/>
	<path fill="#FFFFFF" d="M11.698-54c-0.014,0-0.028,0-0.042,0.002l-23.847,1.992c-0.229,0.02-0.415,0.191-0.452,0.417
		c-0.037,0.227,0.085,0.449,0.295,0.54l18.937,8.187c0.244,0.106,0.532,0,0.648-0.241l4.857-10.068
		c0.077-0.088,0.124-0.203,0.124-0.328c0-0.28-0.271-0.513-0.511-0.5C11.705-54,11.701-54,11.698-54z M-10.121-51.176l20.988-1.754
		l-4.322,8.959L-10.121-51.176z"/>
	<polygon fill="none" points="11.698,-53.5 6.787,-43.321 27.003,-27.945 43.66,-28.657 33.934,-44.426 	"/>
	<path fill="#FFFFFF" d="M11.698-54c-0.187,0-0.365,0.104-0.451,0.282l-4.91,10.179c-0.104,0.215-0.042,0.472,0.147,0.615
		L26.7-27.547c0.092,0.07,0.202,0.107,0.324,0.102l16.657-0.712c0.178-0.007,0.337-0.108,0.42-0.265
		c0.084-0.157,0.077-0.347-0.016-0.498l-9.727-15.769c-0.056-0.09-0.139-0.16-0.237-0.2l-22.235-9.074
		C11.826-53.988,11.762-54,11.698-54z M7.415-43.473l4.529-9.387l21.649,8.835l9.193,14.904l-15.625,0.666L7.415-43.473z"/>
	<polygon fill="none" points="43.66,-28.657 33.934,-44.426 49.766,-25.23 	"/>
	<path fill="#FFFFFF" d="M33.934-44.926c-0.103,0-0.203,0.03-0.291,0.094c-0.214,0.152-0.272,0.445-0.135,0.669l9.727,15.769
		c0.045,0.072,0.107,0.133,0.181,0.174l6.105,3.426c0.21,0.117,0.474,0.068,0.628-0.115c0.154-0.186,0.156-0.453,0.002-0.639
		L34.319-44.744C34.221-44.863,34.078-44.926,33.934-44.926z M44.018-29.029l-5.832-9.456l9.492,11.511L44.018-29.029z"/>
	<polygon fill="none" points="49.766,-25.23 43.66,-28.657 54.126,-6.34 	"/>
	<path fill="#FFFFFF" d="M43.66-29.156c-0.123,0-0.246,0.045-0.34,0.133c-0.16,0.148-0.205,0.383-0.114,0.578L53.675-6.128
		c0.108,0.231,0.372,0.345,0.615,0.261c0.242-0.084,0.382-0.336,0.325-0.587l-4.364-18.89c-0.03-0.137-0.118-0.254-0.241-0.323
		l-6.105-3.426C43.828-29.136,43.744-29.156,43.66-29.156z M52.581-10.814l-7.806-16.644l4.553,2.555L52.581-10.814z"/>
	<polygon fill="none" points="54.126,-6.34 42.734,-7.375 43.66,-28.657 	"/>
	<path fill="#FFFFFF" d="M43.66-29.156c-0.032,0-0.065,0.002-0.098,0.01c-0.227,0.045-0.393,0.238-0.402,0.468L42.234-7.396
		c-0.012,0.268,0.188,0.495,0.454,0.52l11.393,1.035c0.177,0.018,0.353-0.064,0.456-0.211c0.103-0.147,0.119-0.338,0.043-0.5
		L44.113-28.87C44.029-29.047,43.852-29.156,43.66-29.156z M43.254-7.83l0.817-18.774l9.233,19.688L43.254-7.83z"/>
	<path fill="none" d="M42.734-7.375"/>
	<polygon fill="none" points="42.734,-7.375 47.318,15.532 54.126,-6.34 	"/>
	<path fill="#FFFFFF" d="M42.734-7.875c-0.142,0-0.278,0.061-0.373,0.166c-0.105,0.117-0.148,0.277-0.117,0.432l4.584,22.907
		c0.044,0.225,0.235,0.39,0.464,0.401c0.239,0.009,0.436-0.133,0.503-0.351l6.811-21.872c0.045-0.145,0.021-0.301-0.063-0.427
		s-0.219-0.206-0.369-0.22L42.779-7.873C42.764-7.874,42.749-7.875,42.734-7.875z M47.424,13.511L43.355-6.816l10.111,0.918
		L47.424,13.511z"/>
	<polygon fill="none" points="54.126,-6.34 47.318,15.532 53.59,16.296 	"/>
	<path fill="#FFFFFF" d="M54.126-6.84c-0.214,0-0.41,0.138-0.476,0.351L46.84,15.384c-0.043,0.142-0.022,0.295,0.059,0.42
		c0.08,0.123,0.212,0.207,0.359,0.225l6.271,0.764c0.141,0.02,0.281-0.025,0.388-0.118s0.17-0.226,0.173-0.367l0.534-22.495
		c0.015-0.049,0.023-0.099,0.023-0.151c0-0.278-0.224-0.5-0.5-0.5C54.142-6.84,54.135-6.84,54.126-6.84z M47.974,15.108L53.542-2.78
		l-0.438,18.512L47.974,15.108z"/>
	<polygon fill="none" points="47.318,15.532 53.59,16.296 40.893,35.952 	"/>
	<path fill="#FFFFFF" d="M47.317,15.032c-0.216,0-0.41,0.14-0.477,0.35l-6.426,20.42c-0.074,0.239,0.039,0.496,0.266,0.603
		s0.497,0.029,0.632-0.182L54.01,16.567c0.094-0.146,0.106-0.328,0.032-0.483c-0.071-0.157-0.22-0.264-0.392-0.284l-6.271-0.764
		C47.357,15.032,47.338,15.032,47.317,15.032z M42.48,32.572l5.189-16.495l5.066,0.618L42.48,32.572z"/>
	<path fill="none" d="M47.318,15.532"/>
	<polygon fill="none" points="47.318,15.532 29.882,32.355 40.893,35.952 	"/>
	<path fill="#FFFFFF" d="M47.318,15.032c-0.127,0-0.252,0.048-0.348,0.141L29.535,31.997c-0.127,0.122-0.18,0.301-0.141,0.472
		c0.039,0.17,0.166,0.309,0.332,0.363l11.012,3.595c0.127,0.042,0.265,0.03,0.383-0.029c0.119-0.062,0.209-0.168,0.249-0.295
		l6.386-20.296c0.052-0.078,0.082-0.173,0.082-0.274c0-0.28-0.221-0.519-0.51-0.5C47.324,15.032,47.321,15.032,47.318,15.032z
		 M30.827,32.139l15.424-14.883l-5.683,18.063L30.827,32.139z"/>
	<polygon fill="none" points="40.893,35.952 29.882,32.355 19.021,49.184 	"/>
	<path fill="#FFFFFF" d="M29.882,31.855c-0.167,0-0.326,0.084-0.42,0.23l-10.86,16.826c-0.127,0.195-0.102,0.452,0.061,0.619
		c0.163,0.168,0.419,0.2,0.617,0.08L41.152,36.38c0.167-0.102,0.26-0.29,0.237-0.485c-0.022-0.193-0.155-0.357-0.341-0.417
		l-11.012-3.596C29.986,31.864,29.934,31.855,29.882,31.855z M20.616,47.635l9.477-14.683l9.608,3.137L20.616,47.635z"/>
	<polygon fill="none" points="19.021,49.184 5.605,40.397 29.882,32.355 	"/>
	<path fill="#FFFFFF" d="M29.882,31.855c-0.053,0-0.105,0.009-0.157,0.026l-24.277,8.04c-0.182,0.061-0.312,0.221-0.338,0.41
		c-0.026,0.19,0.061,0.378,0.222,0.483l13.416,8.787c0.111,0.073,0.248,0.099,0.377,0.07c0.131-0.029,0.245-0.106,0.317-0.218
		l10.86-16.827c0.115-0.18,0.105-0.409-0.024-0.577C30.181,31.927,30.033,31.855,29.882,31.855z M6.745,40.546l21.947-7.269
		l-9.818,15.211L6.745,40.546z"/>
	<path fill="none" d="M5.605,40.397"/>
	<polygon fill="none" points="5.605,40.397 -6.535,52.38 19.021,49.184 	"/>
	<path fill="#FFFFFF" d="M5.605,39.897c-0.129,0-0.256,0.049-0.352,0.144L-6.887,52.023c-0.152,0.15-0.192,0.381-0.099,0.574
		c0.093,0.191,0.296,0.302,0.512,0.278l25.557-3.197c0.207-0.025,0.378-0.178,0.425-0.382s-0.037-0.416-0.213-0.532L5.879,39.979
		C5.795,39.924,5.699,39.897,5.605,39.897z M-5.136,51.701L5.669,41.037l11.94,7.818L-5.136,51.701z"/>
	<polygon fill="none" points="-6.535,52.38 19.021,49.184 6.402,54.995 	"/>
	<path fill="#FFFFFF" d="M19.021,48.684c-0.021,0-0.041,0.002-0.063,0.004l-25.556,3.196c-0.243,0.029-0.428,0.232-0.438,0.478
		s0.159,0.46,0.4,0.508l12.938,2.616c0.103,0.021,0.212,0.008,0.308-0.037l12.619-5.811c0.224-0.103,0.339-0.354,0.271-0.592
		C19.439,48.829,19.242,48.684,19.021,48.684z M-3.438,52.496l19.316-2.415l-9.537,4.392L-3.438,52.496z"/>
	<path fill="none" d="M-6.535,52.38"/>
	<polygon fill="none" points="-6.535,52.38 6.402,54.995 -18.988,51.749 	"/>
	<path fill="#FFFFFF" d="M-18.989,51.249c-0.257,0-0.475,0.198-0.497,0.456c-0.024,0.268,0.168,0.507,0.434,0.54L6.34,55.492
		c0.266,0.031,0.512-0.149,0.557-0.415c0.043-0.266-0.131-0.518-0.396-0.571L-6.437,51.89l-12.526-0.641
		C-18.973,51.249-18.98,51.249-18.989,51.249z"/>
	<path fill="none" d="M29.882,32.355"/>
	<path fill="none" d="M43.66-28.657"/>
	<path fill="none" d="M-35.019-37.908"/>
	<polygon fill="none" points="-35.019,-37.908 -12.148,-51.508 -8.233,-54.995 -27.951,-44.746 -44.269,-33.809 	"/>
	<path fill="#FFFFFF" d="M-8.234-55.495c-0.077,0-0.156,0.019-0.229,0.056l-19.718,10.25l-16.365,10.965
		c-0.215,0.145-0.286,0.43-0.161,0.655c0.125,0.229,0.401,0.325,0.641,0.217l9.25-4.099l22.923-13.627l3.917-3.477
		c0.156-0.084,0.264-0.25,0.264-0.44c0-0.279-0.232-0.501-0.51-0.5C-8.227-55.495-8.23-55.495-8.234-55.495z M-39.219-36.592
		l11.545-7.738l16.117-8.375l-0.925,0.824l-22.792,13.542L-39.219-36.592z"/>
	<path fill="none" d="M-12.148-51.508"/>
	<polygon fill="none" points="-12.148,-51.508 -8.233,-54.995 11.698,-53.5 	"/>
	<path fill="#FFFFFF" d="M-8.233-55.495c-0.122,0-0.241,0.045-0.333,0.125l-3.915,3.489c-0.161,0.143-0.212,0.373-0.127,0.57
		s0.29,0.321,0.501,0.301l23.848-1.993c0.26-0.021,0.459-0.239,0.458-0.5s-0.202-0.478-0.462-0.496l-19.932-1.495
		C-8.21-55.494-8.221-55.495-8.233-55.495z M-10.697-52.131l2.639-2.35l13.43,1.007L-10.697-52.131z"/>
	<path fill="none" d="M-46.267,4.292"/>
	<polygon fill="none" points="-30.5,43.551 -47.527,24.474 -40.746,37.402 	"/>
	<path fill="#FFFFFF" d="M-47.527,23.974c-0.099,0-0.197,0.028-0.284,0.089c-0.208,0.143-0.275,0.42-0.158,0.643l6.78,12.93
		c0.043,0.079,0.107,0.148,0.186,0.196l10.248,6.148c0.211,0.128,0.484,0.08,0.643-0.11c0.157-0.188,0.152-0.466-0.013-0.65
		l-17.028-19.078C-47.252,24.031-47.389,23.974-47.527,23.974z M-40.369,37.045l-4.834-9.217l12.14,13.602L-40.369,37.045z"/>
	
		<use xlink:href="#新規シンボル_1"  width="24.578" height="24.578" id="XMLID_8_" x="-12.289" y="-12.289" transform="matrix(1.1664 0.3232 -0.4025 1.1195 -16.3164 -15.0576)" overflow="visible"/>
	
		<use xlink:href="#新規シンボル_1"  width="24.578" height="24.578" x="-12.289" y="-12.289" transform="matrix(0.2106 0.135 -0.0158 0.9596 -50.8047 3.082)" overflow="visible"/>
	
		<use xlink:href="#新規シンボル_1"  width="24.578" height="24.578" x="-12.289" y="-12.289" transform="matrix(0.4508 -0.1743 0.2089 0.4644 -13.9512 9.6641)" overflow="visible"/>
	
		<use xlink:href="#新規シンボル_1"  width="24.578" height="24.578" x="-12.289" y="-12.289" transform="matrix(0.466 0.1283 -0.1086 0.4975 10.5156 5.5234)" overflow="visible"/>
	
		<use xlink:href="#新規シンボル_1"  width="24.578" height="24.578" x="-12.289" y="-12.289" transform="matrix(0.3283 -0.2614 0.2904 0.325 11.4004 -31.9805)" overflow="visible"/>
	
		<use xlink:href="#新規シンボル_1"  width="24.578" height="24.578" x="-12.289" y="-12.289" transform="matrix(0.4622 0.1417 -0.1229 0.4942 7.2383 -9.4873)" overflow="visible"/>
	
		<use xlink:href="#新規シンボル_1"  width="24.578" height="24.578" x="-12.289" y="-12.289" transform="matrix(0.3357 0.0681 -0.2511 0.3764 -20.7031 -41.8369)" overflow="visible"/>
	
		<use xlink:href="#新規シンボル_1"  width="24.578" height="24.578" x="-12.289" y="-12.289" transform="matrix(0.3357 0.0681 -0.2511 0.3764 18.5547 40.9336)" overflow="visible"/>
	
		<use xlink:href="#新規シンボル_1"  width="24.578" height="24.578" x="-12.289" y="-12.289" transform="matrix(0.3523 0.101 -0.1231 0.4481 -36.8906 -3.0947)" overflow="visible"/>
	
		<use xlink:href="#新規シンボル_1"  width="24.578" height="24.578" x="-12.289" y="-12.289" transform="matrix(0.0527 -0.3627 0.4607 0.0617 -2.0117 -34.3477)" overflow="visible"/>
	
		<use xlink:href="#新規シンボル_1"  width="24.578" height="24.578" x="-12.289" y="-12.289" transform="matrix(0.2911 -0.2227 0.2864 0.3661 37.9209 -22.5312)" overflow="visible"/>
	
		<use xlink:href="#新規シンボル_1"  width="24.578" height="24.578" x="-12.289" y="-12.289" transform="matrix(0.246 -0.4161 0.4517 0.2352 -35.75 10.6816)" overflow="visible"/>
	
		<use xlink:href="#新規シンボル_1"  width="24.578" height="24.578" x="-12.289" y="-12.289" transform="matrix(0.4085 0.1699 -0.1583 0.4437 -24.0625 18.6289)" overflow="visible"/>
	
		<use xlink:href="#新規シンボル_1"  width="24.578" height="24.578" x="-12.289" y="-12.289" transform="matrix(0.4408 0.0381 -0.0165 0.4709 3.3438 28.3613)" overflow="visible"/>
	
		<use xlink:href="#新規シンボル_1"  width="24.578" height="24.578" x="-12.289" y="-12.289" transform="matrix(0.4424 0.0095 0.0139 0.4709 -0.0225 14.3516)" overflow="visible"/>
	
		<use xlink:href="#新規シンボル_1"  width="24.578" height="24.578" x="-12.289" y="-12.289" transform="matrix(0.3737 -0.2011 0.3181 0.3859 17.6045 -19.0234)" overflow="visible"/>
	
		<use xlink:href="#新規シンボル_1"  width="24.578" height="24.578" x="-12.289" y="-12.289" transform="matrix(0.1336 0.4028 -0.4349 0.2468 16.5859 30.4854)" overflow="visible"/>
	
		<use xlink:href="#新規シンボル_1"  width="24.578" height="24.578" x="-12.289" y="-12.289" transform="matrix(0.4433 -0.0576 0.0656 0.4611 30.3906 -12.8965)" overflow="visible"/>
	
		<use xlink:href="#新規シンボル_1"  width="24.578" height="24.578" x="-12.289" y="-12.289" transform="matrix(0.2953 0.1233 -0.1903 0.4286 -30.0547 -30.3535)" overflow="visible"/>
	
		<use xlink:href="#新規シンボル_1"  width="24.578" height="24.578" x="-12.289" y="-12.289" transform="matrix(0.2007 0.2493 -0.3716 0.2859 -8.2188 -43.7305)" overflow="visible"/>
	
		<use xlink:href="#新規シンボル_1"  width="24.578" height="24.578" x="-12.289" y="-12.289" transform="matrix(0.1834 -0.2601 0.2182 0.1147 -40.5859 -23.9277)" overflow="visible"/>
	
		<use xlink:href="#新規シンボル_1"  width="24.578" height="24.578" x="-12.289" y="-12.289" transform="matrix(0.1834 -0.2601 0.2182 0.1147 30.8369 37.543)" overflow="visible"/>
	
		<use xlink:href="#新規シンボル_1"  width="24.578" height="24.578" x="-12.289" y="-12.289" transform="matrix(-0.3177 -0.0186 -0.0177 -0.2458 3.4609 -49.0205)" overflow="visible"/>
	
		<use xlink:href="#新規シンボル_1"  width="24.578" height="24.578" x="-12.289" y="-12.289" transform="matrix(-0.1133 -0.2974 0.217 -0.1169 48.1846 -1.4941)" overflow="visible"/>
	
		<use xlink:href="#新規シンボル_1"  width="24.578" height="24.578" x="-12.289" y="-12.289" transform="matrix(-0.1969 0.0975 -0.1592 -0.4363 46.9199 -13.4141)" overflow="visible"/>
	
		<use xlink:href="#新規シンボル_1"  width="24.578" height="24.578" x="-12.289" y="-12.289" transform="matrix(-0.266 0.1747 -0.1609 -0.1868 5.9854 46.582)" overflow="visible"/>
	
		<use xlink:href="#新規シンボル_1"  width="24.578" height="24.578" x="-12.289" y="-12.289" transform="matrix(-0.2577 -0.0999 0.038 -0.3121 -37.416 30.5352)" overflow="visible"/>
	
		<use xlink:href="#新規シンボル_1"  width="24.578" height="24.578" x="-12.289" y="-12.289" transform="matrix(0.2812 0.1836 -0.1384 0.3385 -42.7656 18.9678)" overflow="visible"/>
	
		<use xlink:href="#新規シンボル_1"  width="24.578" height="24.578" x="-12.289" y="-12.289" transform="matrix(-0.2299 -0.2446 0.2142 -0.2963 -44.1035 -11.959)" overflow="visible"/>
	
		<use xlink:href="#新規シンボル_1"  width="24.578" height="24.578" x="-12.289" y="-12.289" transform="matrix(0.139 0.3056 -0.2981 0.2116 39.2246 28.9922)" overflow="visible"/>
	
		<use xlink:href="#新規シンボル_1"  width="24.578" height="24.578" x="-12.289" y="-12.289" transform="matrix(1.2585 0.4029 -0.1048 0.7737 -15.3525 38.0303)" overflow="visible"/>
	
		<use xlink:href="#新規シンボル_1"  width="24.578" height="24.578" x="-12.289" y="-12.289" transform="matrix(0.9628 0.5868 -0.1865 0.5546 23.8652 -39.7969)" overflow="visible"/>
	
		<use xlink:href="#新規シンボル_1"  width="24.578" height="24.578" id="XMLID_5_" x="-12.289" y="-12.289" transform="matrix(-0.1651 1.2542 -1.0438 0.0092 31.4053 11.6387)" overflow="visible"/>
</symbol>
<symbol  id="新規シンボル_1" viewBox="-12.289 -12.289 24.578 24.578">
	<polygon fill="#FFFFFF" points="0,12.289 1.218,1.218 12.289,0 1.218,-1.218 0,-12.289 -1.218,-1.218 -12.289,0 -1.218,1.218 	"/>
	<path fill="#FFFFFF" d="M3.75,0c0-2.071-1.679-3.751-3.75-3.751S-3.75-2.071-3.75,0S-2.071,3.749,0,3.749S3.75,2.071,3.75,0z"/>
	<polygon fill="#FFFFFF" points="6.354,6.418 1.505,0.045 6.354,-6.329 -0.019,-1.479 -6.394,-6.329 -1.543,0.045 -6.394,6.418 
		-0.019,1.568 	"/>
</symbol>
<symbol  id="新規シンボル_5" viewBox="-12.289 -12.289 24.578 24.578">
	<polygon fill="#FFFFFF" points="0,12.289 1.218,1.218 12.289,0 1.218,-1.218 0,-12.289 -1.218,-1.218 -12.289,0 -1.218,1.218 	"/>
	<path fill="#FFFFFF" d="M3.75,0c0-2.071-1.679-3.751-3.75-3.751S-3.75-2.071-3.75,0S-2.071,3.749,0,3.749S3.75,2.071,3.75,0z"/>
	<polygon fill="#FFFFFF" points="6.354,6.418 1.505,0.045 6.354,-6.329 -0.019,-1.479 -6.394,-6.329 -1.543,0.045 -6.394,6.418 
		-0.019,1.568 	"/>
</symbol>
<use xlink:href="#astrolab_logomark_1"  width="109.295" height="110.991" id="XMLID_1_" x="-54.648" y="-55.495" transform="matrix(0 -0.901 -0.901 0 1.0745 1191.5491)" overflow="visible"/>
</svg>
