<?xml version="1.0" encoding="utf-8"?>
<!-- Generator: Adobe Illustrator 15.1.0, SVG Export Plug-In . SVG Version: 6.00 Build 0)  -->
<!DOCTYPE svg PUBLIC "-//W3C//DTD SVG 1.1//EN" "http://www.w3.org/Graphics/SVG/1.1/DTD/svg11.dtd">
<svg version="1.1" id="レイヤー_1" xmlns="http://www.w3.org/2000/svg" xmlns:xlink="http://www.w3.org/1999/xlink" x="0px"
	 y="0px" width="32px" height="16px" viewBox="-6 0 32 16" enable-background="new -6 0 32 16" xml:space="preserve">
<path fill="#FFFFFF" d="M22.582,7.108l-7.143-6.25c-0.539-0.473-1.479-0.473-2.021,0c-0.557,0.487-0.557,1.281,0,1.769l6.132,5.365
	l-6.132,5.367c-0.557,0.488-0.557,1.281,0,1.77c0.271,0.234,0.629,0.365,1.012,0.365c0.381,0,0.739-0.131,1.01-0.365l7.143-6.253
	C22.852,8.641,23,8.326,23,7.992S22.852,7.344,22.582,7.108z"/>
<path fill="#FFFFFF" d="M-2.582,8.891l7.143,6.25c0.539,0.473,1.479,0.473,2.021,0c0.558-0.488,0.558-1.281,0-1.77L0.45,8.005
	l6.132-5.367c0.558-0.488,0.558-1.281,0-1.77c-0.271-0.234-0.63-0.365-1.013-0.365c-0.381,0-0.739,0.131-1.01,0.365l-7.143,6.253
	C-2.853,7.357-3,7.671-3,8.005S-2.853,8.652-2.582,8.891z"/>
</svg>
